<svg width="148" height="116" viewBox="0 0 148 116" fill="none" xmlns="http://www.w3.org/2000/svg">
<g filter="url(#filter0_dd)">
<line x1="87.4996" y1="25.4649" x2="87.4999" y2="68.4866" stroke="#FF5757"/>
<path d="M87.4995 25.465C115.5 23.9766 112.5 70.4767 88.4995 68.465" stroke="#041DFF"/>
<line x1="110.5" y1="26.4644" x2="111.5" y2="67.4644" stroke="#FF008A"/>
<line x1="110.447" y1="26.253" x2="130.447" y2="66.253" stroke="#E14141" stroke-opacity="0.87"/>
<line x1="130.5" y1="65.4897" x2="129.474" y2="26.4904" stroke="#E72A2A"/>
<path d="M58.3783 0C58.3783 0 15.1545 78.6736 112.757 98.9765C210.359 119.279 4 98.9765 4 98.9765L58.3783 0Z" fill="#E7305B"/>
<path d="M76.6586 42.3666C91.1904 117.376 127.52 79.8708 142.051 93.9354C156.583 108 85.6796 91.7532 67.0058 62.6385C48.332 33.5238 62.1269 -32.6425 76.6586 42.3666Z" fill="#E7305B"/>
<ellipse cx="29.4307" cy="84.5592" rx="3.63293" ry="4.68807" fill="white"/>
</g>
<defs>
<filter id="filter0_dd" x="0" y="0" width="148" height="116" filterUnits="userSpaceOnUse" color-interpolation-filters="sRGB">
<feFlood flood-opacity="0" result="BackgroundImageFix"/>
<feColorMatrix in="SourceAlpha" type="matrix" values="0 0 0 0 0 0 0 0 0 0 0 0 0 0 0 0 0 0 127 0"/>
<feOffset dy="4"/>
<feGaussianBlur stdDeviation="2"/>
<feColorMatrix type="matrix" values="0 0 0 0 0 0 0 0 0 0 0 0 0 0 0 0 0 0 0.25 0"/>
<feBlend mode="normal" in2="BackgroundImageFix" result="effect1_dropShadow"/>
<feColorMatrix in="SourceAlpha" type="matrix" values="0 0 0 0 0 0 0 0 0 0 0 0 0 0 0 0 0 0 127 0"/>
<feOffset dy="4"/>
<feGaussianBlur stdDeviation="2"/>
<feColorMatrix type="matrix" values="0 0 0 0 0 0 0 0 0 0 0 0 0 0 0 0 0 0 0.25 0"/>
<feBlend mode="normal" in2="effect1_dropShadow" result="effect2_dropShadow"/>
<feBlend mode="normal" in="SourceGraphic" in2="effect2_dropShadow" result="shape"/>
</filter>
</defs>
</svg>
